<svg width="120" height="120" viewBox="0 0 120 120" fill="none" xmlns="http://www.w3.org/2000/svg">
<path d="M85.4615 64L93 36H37L44.5385 64H85.4615Z" stroke="#252525" stroke-width="4" stroke-linecap="round" stroke-linejoin="round"/>
<path d="M27 28H34.8462L46.9616 73H82" stroke="#252525" stroke-width="4" stroke-linecap="round" stroke-linejoin="round"/>
<path d="M48.4019 81.5C50.0096 80.5718 51.9904 80.5718 53.5981 81.5V81.5C55.2058 82.4282 56.1962 84.1436 56.1962 86V86C56.1962 87.8564 55.2058 89.5718 53.5981 90.5V90.5C51.9904 91.4282 50.0096 91.4282 48.4019 90.5V90.5C46.7942 89.5718 45.8038 87.8564 45.8038 86V86C45.8038 84.1436 46.7942 82.4282 48.4019 81.5V81.5Z" stroke="#252525" stroke-width="4" stroke-linecap="round" stroke-linejoin="round"/>
<path d="M74.4019 81.5C76.0096 80.5718 77.9904 80.5718 79.5981 81.5V81.5C81.2058 82.4282 82.1962 84.1436 82.1962 86V86C82.1962 87.8564 81.2058 89.5718 79.5981 90.5V90.5C77.9904 91.4282 76.0096 91.4282 74.4019 90.5V90.5C72.7942 89.5718 71.8038 87.8564 71.8038 86V86C71.8038 84.1436 72.7942 82.4282 74.4019 81.5V81.5Z" stroke="#252525" stroke-width="4" stroke-linecap="round" stroke-linejoin="round"/>
</svg>
